<?xml version="1.0" encoding="utf-8"?>
<!DOCTYPE svg PUBLIC "-//W3C//DTD SVG 20010904//EN" "http://www.w3.org/TR/2001/REC-SVG-20010904/DTD/svg10.dtd">
<svg version="1.0" xmlns="http://www.w3.org/2000/svg" width="502pt" height="501pt" viewBox="0 0 502 501" style="" preserveAspectRatio="xMidYMid meet">
<g fill="#E51937FF" stroke="#E51937FF">
<path d="M 8.605 2.922 C 7.013 3.971 4.877 6.146 3.859 7.754 C 2.071 10.578 2.007 18.851 1.996 250.958 C 1.984 486.984 2.018 491.293 3.923 494.369 C 4.989 496.091 7.200 498.288 8.835 499.250 C 11.645 500.904 25.046 501.000 252.154 500.993 C 485.915 500.987 492.578 500.935 495.359 499.102 C 496.931 498.066 499.066 495.931 500.102 494.359 C 501.935 491.578 501.987 484.918 501.987 251.000 C 501.987 17.082 501.935 10.422 500.102 7.641 C 499.066 6.069 496.931 3.934 495.359 2.898 C 492.578 1.065 485.918 1.013 252.000 1.013 C 17.021 1.013 11.434 1.057 8.605 2.922 M 357.000 86.454 C 369.748 90.534 384.701 99.411 391.405 106.878 C 392.453 108.045 394.339 109.000 395.597 109.000 C 400.595 109.000 422.220 101.556 434.635 95.562 L 447.770 89.220 445.282 95.345 C 439.959 108.443 427.703 123.828 416.377 131.629 C 413.419 133.666 411.159 135.493 411.354 135.688 C 412.706 137.039 443.801 129.157 453.473 125.012 C 455.963 123.944 458.000 123.352 458.000 123.695 C 458.000 124.829 449.761 135.378 442.771 143.193 C 438.987 147.425 431.706 154.337 426.593 158.554 L 417.295 166.221 416.687 183.360 C 415.403 219.542 407.563 251.486 392.108 283.500 C 379.512 309.592 365.781 329.242 346.167 349.245 C 309.526 386.612 267.358 408.094 213.797 416.678 C 204.887 418.106 196.796 418.485 175.500 418.471 C 151.971 418.456 146.893 418.166 135.999 416.214 C 105.421 410.734 77.983 400.974 54.579 387.253 L 46.609 382.581 64.555 382.466 C 83.804 382.343 95.487 380.800 111.000 376.333 C 129.656 370.961 149.058 361.744 163.977 351.167 L 170.454 346.575 159.788 344.823 C 139.571 341.503 124.676 333.710 110.811 319.198 C 102.963 310.983 96.608 301.310 93.029 292.131 C 91.436 288.046 91.272 286.890 92.342 287.301 C 98.151 289.530 122.110 288.675 126.822 286.071 C 127.630 285.624 124.840 284.266 119.633 282.572 C 108.039 278.801 97.339 272.300 87.935 263.315 C 72.330 248.407 63.482 229.709 61.641 207.752 L 61.076 201.005 65.980 203.490 C 72.120 206.601 85.611 210.518 93.487 211.475 L 99.475 212.203 90.226 203.497 C 84.897 198.481 78.857 191.561 75.975 187.170 C 60.045 162.905 57.844 131.732 70.162 104.840 L 73.213 98.180 79.534 105.428 C 98.342 126.993 126.832 148.875 153.500 162.238 C 170.714 170.864 194.184 178.818 214.500 182.912 C 225.340 185.097 247.650 187.683 248.481 186.852 C 248.764 186.570 248.495 183.675 247.884 180.419 C 246.471 172.886 247.331 154.379 249.458 146.561 C 253.562 131.471 259.304 121.137 269.847 109.868 C 278.294 100.839 288.492 93.646 299.102 89.233 C 311.116 84.237 318.630 82.996 334.500 83.388 C 346.378 83.681 349.789 84.146 357.000 86.454 "/></g>
</svg>
