<?xml version="1.0" encoding="utf-8"?><svg xml:space="preserve" viewBox="0 0 100 100" y="0" x="0" xmlns="http://www.w3.org/2000/svg" id="Layer_1" version="1.1" width="200px" height="200px" xmlns:xlink="http://www.w3.org/1999/xlink" style="width:100%;height:100%;background-size:initial;background-repeat-y:initial;background-repeat-x:initial;background-position-y:initial;background-position-x:initial;background-origin:initial;background-color:initial;background-clip:initial;background-attachment:initial;animation-play-state:paused" ><g class="ldl-scale" style="transform-origin:50% 50%;transform:rotate(0deg) scale(0.8, 0.8);animation-play-state:paused" ><path fill="#f4e6c8" d="M50.5 25.1c-.2-.4-.8-.4-1 0L18.2 74.3c-.1.2-.1.5.1.7l.1.2h62.8c.1 0 .4 0 .5-.3.2-.3 0-.6 0-.6L50.5 25.1z" style="fill:rgb(245, 245, 241);animation-play-state:paused" ></path>
<g style="animation-play-state:paused" ><path fill="#e15c64" d="M49.3 40.7h1.4c1.8 0 3.3 1.5 3.3 3.3v2.9l-1.3 12.5c-.2 1.4-1.4 2.5-2.8 2.5s-2.6-1.1-2.8-2.5L46 46.9V44c0-1.8 1.5-3.3 3.3-3.3zm.3 23.1h.9c1.8 0 3.3 1.5 3.3 3.3 0 1.8-1.5 3.3-3.3 3.3h-.9c-1.8 0-3.3-1.5-3.3-3.3-.1-1.9 1.4-3.3 3.3-3.3z" style="fill:rgb(229, 9, 20);animation-play-state:paused" ></path></g>
<path fill="#c33837" d="M57.2 20.6c-1.6-2.4-4.3-3.9-7.2-3.9-2.9 0-5.6 1.4-7.3 3.9L11.5 69.7c-1.8 2.7-2 6.1-.5 9 1.5 2.9 4.5 4.6 7.7 4.6h62.5c3.2 0 6.2-1.8 7.7-4.6 1.5-2.9 1.4-6.3-.4-9L57.2 20.6zm24.6 54.2c-.2.3-.4.3-.5.3H18.5l-.2-.1c-.2-.2-.2-.4-.1-.7l31.3-49.2c.3-.4.8-.4 1 0l31.3 49.1c0 .1.2.3 0 .6z" style="fill:rgb(34, 31, 31);animation-play-state:paused" ></path>
<metadata xmlns:d="https://loading.io/stock/" style="animation-play-state:paused" ><d:name style="animation-play-state:paused" >warn</d:name>
<d:tags style="animation-play-state:paused" >danger,exclamation,note,hint,caution,warn,web application</d:tags>
<d:license style="animation-play-state:paused" >by</d:license>
<d:slug style="animation-play-state:paused" >d9n0g7</d:slug></metadata></g><!-- generated by https://loading.io/ --></svg>